<svg width="689" height="140" viewBox="0 0 689 140" fill="none" xmlns="http://www.w3.org/2000/svg">
<mask id="path-1-inside-1_5_3" fill="white">
<path fill-rule="evenodd" clip-rule="evenodd" d="M31 0H168C170.149 0 171.982 1.35604 172.689 3.2592C169.651 11.9437 168 21.279 168 31C168 40.721 169.651 50.0563 172.689 58.7408C171.982 60.644 170.149 62 168 62H31H30V61.9842C13.342 61.4563 3.05176e-05 47.7862 3.05176e-05 31C3.05176e-05 14.2138 13.342 0.543729 30 0.0158237V0H31Z"/>
</mask>
<path d="M172.689 3.2592L182.128 6.56057L183.318 3.15725L182.063 -0.222612L172.689 3.2592ZM172.689 58.7408L182.063 62.2226L183.318 58.8428L182.128 55.4394L172.689 58.7408ZM30 62H20V72H30V62ZM30 61.9842H40V52.2961L30.3168 51.9892L30 61.9842ZM30 0.0158237L30.3168 10.0108L40 9.70394V0.0158237H30ZM30 0V-10H20V0H30ZM168 -10H31V10H168V-10ZM182.063 -0.222612C179.948 -5.91683 174.463 -10 168 -10V10C165.835 10 164.016 8.6289 163.314 6.74102L182.063 -0.222612ZM178 31C178 22.4184 179.457 14.1984 182.128 6.56057L163.249 -0.0421643C159.846 9.68888 158 20.1396 158 31H178ZM182.128 55.4394C179.457 47.8016 178 39.5816 178 31H158C158 41.8605 159.846 52.3111 163.249 62.0422L182.128 55.4394ZM168 72C174.463 72 179.948 67.9168 182.063 62.2226L163.314 55.259C164.016 53.3711 165.835 52 168 52V72ZM31 72H168V52H31V72ZM30 72H31V52H30V72ZM20 61.9842V62H40V61.9842H20ZM30.3168 51.9892C19.0383 51.6318 10 42.3695 10 31H-9.99997C-9.99997 53.203 7.64568 71.2808 29.6833 71.9792L30.3168 51.9892ZM10 31C10 19.6305 19.0383 10.3682 30.3168 10.0108L29.6833 -9.97916C7.64569 -9.28077 -9.99997 8.79701 -9.99997 31H10ZM20 0V0.0158237H40V0H20ZM31 -10H30V10H31V-10Z" fill="black" mask="url(#path-1-inside-1_5_3)"/>
<path d="M156 39H44.5C44.2239 39 44 39.2239 44 39.5C44 39.7761 44.2239 40 44.5 40H156V39Z" stroke="black" stroke-width="5.5"/>
<path d="M156 21H65.5C65.2239 21 65 21.2239 65 21.5C65 21.7761 65.2239 22 65.5 22H156V21Z" stroke="black" stroke-width="5.5"/>
<mask id="path-5-inside-2_5_3" fill="white">
<path fill-rule="evenodd" clip-rule="evenodd" d="M141.689 77H4.6886C2.53937 77 0.706848 78.356 -3.05176e-05 80.2592C3.03732 88.9437 4.6886 98.279 4.6886 108C4.6886 117.721 3.03732 127.056 -3.05176e-05 135.741C0.706848 137.644 2.53937 139 4.6886 139H141.689H142.689V138.984C159.347 138.456 172.689 124.786 172.689 108C172.689 91.2138 159.347 77.5437 142.689 77.0158V77H141.689Z"/>
</mask>
<path d="M-3.05176e-05 80.2592L-9.43936 83.5606L-10.6297 80.1572L-9.3743 76.7774L-3.05176e-05 80.2592ZM-3.05176e-05 135.741L-9.3743 139.223L-10.6297 135.843L-9.43936 132.439L-3.05176e-05 135.741ZM142.689 139H152.689V149H142.689V139ZM142.689 138.984H132.689V129.296L142.372 128.989L142.689 138.984ZM142.689 77.0158L142.372 87.0108L132.689 86.7039V77.0158H142.689ZM142.689 77V67H152.689V77H142.689ZM4.6886 67H141.689V87H4.6886V67ZM-9.3743 76.7774C-7.25934 71.0832 -1.7748 67 4.6886 67V87C6.85353 87 8.67303 85.6289 9.37424 83.741L-9.3743 76.7774ZM-5.3114 108C-5.3114 99.4184 -6.76805 91.1984 -9.43936 83.5606L9.4393 76.9578C12.8427 86.6889 14.6886 97.1396 14.6886 108H-5.3114ZM-9.43936 132.439C-6.76805 124.802 -5.3114 116.582 -5.3114 108H14.6886C14.6886 118.86 12.8427 129.311 9.4393 139.042L-9.43936 132.439ZM4.6886 149C-1.77478 149 -7.25934 144.917 -9.3743 139.223L9.37424 132.259C8.67303 130.371 6.85352 129 4.6886 129V149ZM141.689 149H4.6886V129H141.689V149ZM142.689 149H141.689V129H142.689V149ZM152.689 138.984V139H132.689V138.984H152.689ZM142.372 128.989C153.65 128.632 162.689 119.369 162.689 108H182.689C182.689 130.203 165.043 148.281 143.005 148.979L142.372 128.989ZM162.689 108C162.689 96.6305 153.65 87.3682 142.372 87.0108L143.005 67.0208C165.043 67.7192 182.689 85.797 182.689 108H162.689ZM152.689 77V77.0158H132.689V77H152.689ZM141.689 67H142.689V87H141.689V67Z" fill="black" mask="url(#path-5-inside-2_5_3)"/>
<path d="M17 116H107.5C107.776 116 108 116.224 108 116.5C108 116.776 107.776 117 107.5 117H17V116Z" stroke="black" stroke-width="5.5"/>
<path d="M17 98H128.5C128.776 98 129 98.2239 129 98.5C129 98.7761 128.776 99 128.5 99H17V98Z" stroke="black" stroke-width="5.5"/>
<path d="M233.57 99.3398H262.516V110.941H233.57C228.121 110.941 223.492 109.418 219.684 106.371C215.934 103.324 214.059 99.6328 214.059 95.1797L214 24.75H225.602L225.66 95.1797C225.66 96 226.363 96.9375 227.828 97.875C229.293 98.8711 231.227 99.3398 233.57 99.3398ZM326.207 99.6328C326.324 99.6328 326.441 99.6328 326.5 99.5742V111H273.18V41.918C273.18 37.2305 274.879 33.1875 278.277 29.8477C281.734 26.5078 285.777 24.8086 290.523 24.8086C290.523 24.8086 292.281 24.8086 295.68 24.8086C299.137 24.8086 303.062 24.8086 307.516 24.8086C311.91 24.8086 315.836 24.8086 319.234 24.8086C322.633 24.8086 324.449 24.8086 324.684 24.8086V36.3516C324.508 36.3516 322.691 36.3516 319.293 36.4102C315.953 36.4102 312.027 36.4102 307.574 36.4102C303.121 36.4102 299.195 36.4102 295.738 36.4102C292.281 36.4102 290.523 36.4688 290.523 36.4688C289 36.4688 287.652 36.9961 286.539 38.0508C285.484 39.1055 284.898 40.3945 284.898 41.918V61.8984H321.754V73.1484L284.898 73.207L284.664 99.3398L326.207 99.6328ZM371.207 24.75C377.477 24.75 383.16 26.0977 388.258 28.793C393.355 31.4297 397.398 34.8867 400.387 39.0469C403.375 43.2656 404.898 47.7188 404.957 52.5234C404.957 54.3984 404.957 58.3828 404.957 64.4766C404.957 70.5117 404.957 77.1328 404.957 84.2227C404.957 91.3711 404.957 97.6406 404.957 102.973C404.957 108.305 404.957 111 404.957 111H393.59C393.59 110.941 393.59 110.297 393.59 108.949C393.59 107.66 393.59 106.137 393.59 104.438C393.59 102.738 393.59 101.215 393.59 99.9258C393.59 98.6367 393.59 97.9336 393.59 97.7578C393.473 91.5469 391.832 86.8594 388.551 83.8125C385.328 80.7656 381.402 78.7734 376.773 77.8359C372.203 76.8984 367.867 76.4297 363.707 76.4883C359.312 76.4297 355.738 76.4297 352.984 76.4883C350.23 76.4883 348.883 76.4883 348.883 76.4883C348.883 77.25 348.883 79.418 348.883 82.9922C348.883 86.625 348.883 90.5508 348.824 94.8281C348.824 99.1055 348.824 102.855 348.824 106.137C348.824 109.359 348.824 111 348.824 111H337.164C337.164 111 337.164 108.129 337.164 102.445C337.164 96.8203 337.164 90.2578 337.164 82.7578C337.164 75.3164 337.164 68.6953 337.164 63.0117C337.164 57.3281 337.164 54.1641 337.164 53.5195C337.164 48.5391 338.805 43.8516 342.086 39.5156C345.309 35.1211 349.586 31.5469 354.742 28.8516C359.957 26.1562 365.406 24.75 371.207 24.75ZM393.531 72.8555C393.531 68.2852 393.531 64.1836 393.473 60.7266C393.414 57.2109 393.355 55.1016 393.297 54.3398C392.535 49.125 390.074 44.8477 385.914 41.5078C381.695 38.168 376.773 36.4688 371.207 36.4688C365.348 36.4688 360.25 38.2852 356.09 42.0352C351.871 45.7266 349.469 50.3555 348.941 55.9219C348.883 56.332 348.883 59.3203 348.883 64.9453H367.75C373.727 64.9453 378.824 65.4727 383.043 66.6445C387.262 67.7578 390.777 69.8672 393.531 72.8555ZM463.551 77.4844C469.059 81.9375 473.277 87.1523 476.207 93.0703C479.078 99.0469 480.602 105.082 480.602 111.176H469C469 106.254 467.594 101.332 464.84 96.4688C462.086 91.6055 458.102 87.5625 452.945 84.2227C450.426 82.4062 447.73 81.2344 444.918 80.6484C441.52 80.1797 437.77 80.0625 433.609 80.2969C431.676 80.3555 429.566 80.4141 427.281 80.4141L427.164 111.176H415.562L415.621 40.8047C415.621 35.4141 416.734 31.4297 419.02 28.9102C421.246 26.332 424.996 25.043 430.152 25.043C433.141 25.043 436.07 25.043 439 25.043C441.871 24.9844 444.332 24.9844 446.266 24.9844C448.258 24.9844 449.195 24.9844 449.195 24.9844C455.289 25.043 460.621 26.0977 465.25 28.207C469.938 30.3164 473.57 33.4805 476.266 37.6406C478.902 41.8594 480.25 47.0742 480.25 53.3438C480.25 57.6211 479.547 61.3125 478.199 64.418C476.793 67.582 474.859 70.2188 472.34 72.3867C469.879 74.4961 466.949 76.1953 463.551 77.4844ZM449.488 68.8125C453.121 68.5781 456.402 67.9922 459.273 67.0547C462.145 66.1172 464.371 64.5352 466.07 62.4258C467.711 60.2578 468.59 57.2695 468.59 53.3438C468.59 49.5938 467.887 46.6055 466.598 44.2617C465.25 41.9766 463.375 40.2188 460.914 39.0469C458.453 37.8164 455.523 37.0547 452.184 36.6445C451.949 36.6445 450.836 36.6445 448.727 36.6445C446.676 36.6445 444.273 36.6445 441.578 36.5859C438.883 36.5859 436.48 36.5859 434.43 36.5859C432.379 36.5859 431.324 36.5859 431.148 36.5859C430.094 36.7617 429.215 37.2305 428.512 37.9922C427.809 38.7539 427.457 39.6914 427.457 40.7461C427.457 40.7461 427.457 42.1523 427.457 44.9648C427.457 47.7773 427.457 50.9414 427.457 54.5742C427.457 58.207 427.398 61.4297 427.398 64.2422C427.398 67.0547 427.398 68.5781 427.457 68.8125C431.852 68.8125 436.012 68.8125 439.996 68.8125C442.75 68.8125 445.035 68.8125 446.793 68.8125C448.492 68.8125 449.43 68.8125 449.488 68.8125ZM563.395 98.8711V110.824C561.988 110.883 560.758 110.883 559.703 110.824C558.941 110.824 558.18 110.824 557.418 110.824C549.742 110.707 543.766 108.949 539.488 105.434C535.211 101.977 531.988 97.4648 529.762 91.8984C527.594 86.2734 525.719 80.2969 524.137 73.9102C522.906 68.9883 521.5 64.125 519.859 59.3789C518.277 54.6328 516.168 50.2969 513.531 46.3711C510.895 42.4453 507.438 39.1641 503.16 36.6445V98.4609L503.102 110.824H491.148L491.207 98.4609L491.266 36.6445L491.207 24.6914C491.207 24.6914 491.441 24.6914 491.91 24.6914C492.438 24.6914 493.023 24.6914 493.727 24.6914C494.43 24.6914 495.074 24.6914 495.777 24.6914C496.422 24.6914 497.008 24.6914 497.418 24.6914C502.457 24.6914 506.793 25.4531 510.426 27.0352C514.059 28.6758 517.164 30.8438 519.742 33.5977C522.32 36.3516 524.547 39.5156 526.363 43.0898C528.18 46.6641 529.762 50.4727 531.109 54.457C532.457 58.5 533.688 62.6016 534.859 66.7031C536.734 73.5586 538.844 79.8281 541.305 85.6289C543.707 91.3711 547.105 95.8242 551.441 98.8711L551.383 37.0547V24.6914H563.336V37.0547L563.395 98.8711ZM574.059 24.75H585.953V110.941H574L574.059 24.75ZM645.367 69.2227C650.934 73.0312 655.387 78.1289 658.727 84.6328C662.066 91.0781 663.707 98.2852 663.707 106.137C663.707 107.777 663.648 109.359 663.473 110.941H651.812C651.988 109.418 652.105 107.777 652.105 106.137C652.105 100.395 651.227 95.1797 649.527 90.4922C647.828 85.8047 645.309 82.0547 642.027 79.2422C638.746 76.4297 634.82 75.0234 630.133 75.0234C625.504 75.0234 621.578 76.4297 618.297 79.2422C615.016 82.0547 612.555 85.8047 610.797 90.4922C609.098 95.1797 608.219 100.395 608.219 106.137C608.219 107.777 608.336 109.418 608.512 110.941H596.852C596.676 109.359 596.617 107.777 596.617 106.137C596.617 98.2852 598.258 91.0781 601.598 84.6328C604.938 78.1289 609.391 73.0312 614.957 69.2227C609.391 65.4141 604.938 60.2578 601.598 53.8125C598.258 47.3086 596.617 40.1602 596.617 32.3086C596.617 29.9062 596.852 27.3867 597.32 24.75H609.098C608.512 27.3281 608.219 29.8477 608.219 32.3086C608.219 37.9922 609.098 43.207 610.797 47.9531C612.555 52.6406 615.016 56.3906 618.297 59.2031C621.578 62.0156 625.504 63.4219 630.133 63.4219C634.82 63.4219 638.746 62.0156 642.027 59.2031C645.309 56.3906 647.828 52.6406 649.527 47.9531C651.227 43.207 652.105 37.9922 652.105 32.3086C652.105 29.8477 651.812 27.3281 651.285 24.75H663.062C663.473 27.3867 663.707 29.9062 663.707 32.3086C663.707 40.1602 662.066 47.3086 658.727 53.8125C655.387 60.2578 650.934 65.4141 645.367 69.2227Z" fill="black"/>
</svg>
