<svg width="800" height="800" viewBox="0 0 800 800" fill="none" xmlns="http://www.w3.org/2000/svg">
<path fill-rule="evenodd" clip-rule="evenodd" d="M83.9733 260.758C66.6666 292.376 66.6666 330.516 66.6666 406.797V457.5C66.6666 587.527 66.6666 652.543 105.719 692.937C144.772 733.333 207.625 733.333 333.333 733.333H466.667C592.373 733.333 655.23 733.333 694.28 692.937C733.333 652.543 733.333 587.527 733.333 457.5V406.797C733.333 330.516 733.333 292.376 716.027 260.758C698.72 229.14 667.103 209.517 603.867 170.271L537.2 128.896C470.353 87.4097 436.93 66.6667 400 66.6667C363.07 66.6667 329.646 87.4097 262.801 128.896L196.134 170.271C132.898 209.517 101.28 229.14 83.9733 260.758ZM300 575C286.193 575 275 586.193 275 600C275 613.807 286.193 625 300 625H500C513.807 625 525 613.807 525 600C525 586.193 513.807 575 500 575H300Z" fill="black"/>
</svg>
