<svg width="173" height="139" viewBox="0 0 173 139" fill="none" xmlns="http://www.w3.org/2000/svg">
<mask id="path-1-inside-1_1_44" fill="white">
<path fill-rule="evenodd" clip-rule="evenodd" d="M31 0H168C170.149 0 171.982 1.35604 172.689 3.2592C169.651 11.9437 168 21.279 168 31C168 40.721 169.651 50.0563 172.689 58.7408C171.982 60.644 170.149 62 168 62H31H30V61.9842C13.342 61.4563 3.05176e-05 47.7862 3.05176e-05 31C3.05176e-05 14.2138 13.342 0.543729 30 0.0158237V0H31Z"/>
</mask>
<path d="M172.689 3.2592L182.128 6.56057L183.318 3.15725L182.063 -0.222612L172.689 3.2592ZM172.689 58.7408L182.063 62.2226L183.318 58.8428L182.128 55.4394L172.689 58.7408ZM30 62H20V72H30V62ZM30 61.9842H40V52.2961L30.3168 51.9892L30 61.9842ZM30 0.0158237L30.3168 10.0108L40 9.70394V0.0158237H30ZM30 0V-10H20V0H30ZM168 -10H31V10H168V-10ZM182.063 -0.222612C179.948 -5.91683 174.463 -10 168 -10V10C165.835 10 164.016 8.6289 163.314 6.74102L182.063 -0.222612ZM178 31C178 22.4184 179.457 14.1984 182.128 6.56057L163.249 -0.0421643C159.846 9.68888 158 20.1396 158 31H178ZM182.128 55.4394C179.457 47.8016 178 39.5816 178 31H158C158 41.8605 159.846 52.3111 163.249 62.0422L182.128 55.4394ZM168 72C174.463 72 179.948 67.9168 182.063 62.2226L163.314 55.259C164.016 53.3711 165.835 52 168 52V72ZM31 72H168V52H31V72ZM30 72H31V52H30V72ZM20 61.9842V62H40V61.9842H20ZM30.3168 51.9892C19.0383 51.6318 10 42.3695 10 31H-9.99997C-9.99997 53.203 7.64568 71.2808 29.6833 71.9792L30.3168 51.9892ZM10 31C10 19.6305 19.0383 10.3682 30.3168 10.0108L29.6833 -9.97916C7.64569 -9.28077 -9.99997 8.79701 -9.99997 31H10ZM20 0V0.0158237H40V0H20ZM31 -10H30V10H31V-10Z" fill="black" mask="url(#path-1-inside-1_1_44)"/>
<path d="M156 39H44.5C44.2239 39 44 39.2239 44 39.5C44 39.7761 44.2239 40 44.5 40H156V39Z" stroke="black" stroke-width="5.5"/>
<path d="M156 21H65.5C65.2239 21 65 21.2239 65 21.5C65 21.7761 65.2239 22 65.5 22H156V21Z" stroke="black" stroke-width="5.5"/>
<mask id="path-5-inside-2_1_44" fill="white">
<path fill-rule="evenodd" clip-rule="evenodd" d="M141.689 77H4.6886C2.53937 77 0.706848 78.356 -3.05176e-05 80.2592C3.03732 88.9437 4.6886 98.279 4.6886 108C4.6886 117.721 3.03732 127.056 -3.05176e-05 135.741C0.706848 137.644 2.53937 139 4.6886 139H141.689H142.689V138.984C159.347 138.456 172.689 124.786 172.689 108C172.689 91.2138 159.347 77.5437 142.689 77.0158V77H141.689Z"/>
</mask>
<path d="M-3.05176e-05 80.2592L-9.43936 83.5606L-10.6297 80.1572L-9.3743 76.7774L-3.05176e-05 80.2592ZM-3.05176e-05 135.741L-9.3743 139.223L-10.6297 135.843L-9.43936 132.439L-3.05176e-05 135.741ZM142.689 139H152.689V149H142.689V139ZM142.689 138.984H132.689V129.296L142.372 128.989L142.689 138.984ZM142.689 77.0158L142.372 87.0108L132.689 86.7039V77.0158H142.689ZM142.689 77V67H152.689V77H142.689ZM4.6886 67H141.689V87H4.6886V67ZM-9.3743 76.7774C-7.25934 71.0832 -1.7748 67 4.6886 67V87C6.85353 87 8.67303 85.6289 9.37424 83.741L-9.3743 76.7774ZM-5.3114 108C-5.3114 99.4184 -6.76805 91.1984 -9.43936 83.5606L9.4393 76.9578C12.8427 86.6889 14.6886 97.1396 14.6886 108H-5.3114ZM-9.43936 132.439C-6.76805 124.802 -5.3114 116.582 -5.3114 108H14.6886C14.6886 118.86 12.8427 129.311 9.4393 139.042L-9.43936 132.439ZM4.6886 149C-1.77478 149 -7.25934 144.917 -9.3743 139.223L9.37424 132.259C8.67303 130.371 6.85352 129 4.6886 129V149ZM141.689 149H4.6886V129H141.689V149ZM142.689 149H141.689V129H142.689V149ZM152.689 138.984V139H132.689V138.984H152.689ZM142.372 128.989C153.65 128.632 162.689 119.369 162.689 108H182.689C182.689 130.203 165.043 148.281 143.005 148.979L142.372 128.989ZM162.689 108C162.689 96.6305 153.65 87.3682 142.372 87.0108L143.005 67.0208C165.043 67.7192 182.689 85.797 182.689 108H162.689ZM152.689 77V77.0158H132.689V77H152.689ZM141.689 67H142.689V87H141.689V67Z" fill="black" mask="url(#path-5-inside-2_1_44)"/>
<path d="M17 116H107.5C107.776 116 108 116.224 108 116.5C108 116.776 107.776 117 107.5 117H17V116Z" stroke="black" stroke-width="5.5"/>
<path d="M17 98H128.5C128.776 98 129 98.2239 129 98.5C129 98.7761 128.776 99 128.5 99H17V98Z" stroke="black" stroke-width="5.5"/>
</svg>
