<svg width="800" height="800" viewBox="0 0 800 800" fill="none" xmlns="http://www.w3.org/2000/svg">
<path d="M91.8194 490.533L109.074 554.93C129.216 630.097 139.286 667.683 162.117 692.06C180.144 711.307 203.474 724.777 229.155 730.763C261.681 738.347 299.266 728.277 374.437 708.133C449.603 687.993 487.19 677.923 511.567 655.093C513.59 653.197 515.547 651.243 517.443 649.233C506.303 648.3 495.067 646.507 483.647 644.237C460.443 639.623 432.873 632.233 400.267 623.497L396.707 622.543L395.88 622.323C360.403 612.817 330.76 604.857 307.092 596.307C282.202 587.317 259.587 576.233 240.383 558.247C213.918 533.46 195.398 501.38 187.164 466.067C181.189 440.443 182.897 415.313 187.555 389.263C192.019 364.3 200.036 334.383 209.642 298.538L227.455 232.058L228.082 229.72C164.063 246.965 130.367 257.168 107.896 278.215C88.6484 296.242 75.1791 319.572 69.1911 345.253C61.6071 377.78 71.6777 415.363 91.8194 490.533Z" fill="black"/>
<path fill-rule="evenodd" clip-rule="evenodd" d="M694.31 357.18L677.053 421.577C656.913 496.747 646.84 534.33 624.01 558.707C605.983 577.953 582.653 591.423 556.973 597.41C553.763 598.16 550.507 598.737 547.167 599.147C516.663 602.91 479.447 592.937 411.693 574.783C336.523 554.64 298.938 544.57 274.562 521.74C255.315 503.713 241.846 480.383 235.858 454.7C228.274 422.173 238.344 384.59 258.486 309.421L275.741 245.026C278.637 234.218 281.326 224.18 283.874 214.854C299.043 159.319 309.236 128.766 328.784 107.896C346.81 88.6483 370.14 75.179 395.823 69.191C428.347 61.607 465.933 71.6777 541.103 91.8193C616.27 111.961 653.857 122.032 678.233 144.862C697.48 162.889 710.95 186.219 716.937 211.901C724.52 244.427 714.45 282.011 694.31 357.18ZM368.413 326.863C371.987 313.526 385.697 305.612 399.033 309.185L560.02 352.323C573.357 355.897 581.27 369.603 577.697 382.94C574.123 396.277 560.417 404.19 547.08 400.617L386.09 357.48C372.753 353.907 364.84 340.2 368.413 326.863ZM342.52 423.443C346.093 410.107 359.8 402.193 373.137 405.767L469.73 431.65C483.067 435.223 490.98 448.93 487.407 462.267C483.833 475.603 470.127 483.52 456.79 479.947L360.197 454.063C346.86 450.49 338.943 436.78 342.52 423.443Z" fill="black"/>
</svg>
