<svg width="800" height="800" viewBox="0 0 800 800" fill="none" xmlns="http://www.w3.org/2000/svg">
<path fill-rule="evenodd" clip-rule="evenodd" d="M241.669 79.594C284.959 69.9734 337.477 66.6667 400 66.6667C462.523 66.6667 515.04 69.9734 558.33 79.594C602 89.299 638.293 105.867 666.213 133.786C694.133 161.705 710.7 198.001 720.407 241.669C730.027 284.959 733.333 337.477 733.333 400C733.333 462.523 730.027 515.04 720.407 558.33C710.7 602 694.133 638.293 666.213 666.213C638.293 694.133 602 710.7 558.33 720.407C515.04 730.027 462.523 733.333 400 733.333C337.477 733.333 284.959 730.027 241.669 720.407C198.001 710.7 161.705 694.133 133.786 666.213C105.867 638.293 89.299 602 79.594 558.33C69.9733 515.04 66.6666 462.523 66.6666 400C66.6666 337.477 69.9733 284.959 79.594 241.669C89.299 198.001 105.867 161.705 133.786 133.786C161.705 105.867 198.001 89.299 241.669 79.594ZM300 383.333C300 337.31 337.31 300 383.333 300C429.357 300 466.667 337.31 466.667 383.333C466.667 429.357 429.357 466.667 383.333 466.667C337.31 466.667 300 429.357 300 383.333ZM383.333 233.333C300.491 233.333 233.333 300.491 233.333 383.333C233.333 466.177 300.491 533.333 383.333 533.333C412.683 533.333 440.067 524.903 463.19 510.333L509.763 556.903C522.78 569.92 543.887 569.92 556.903 556.903C569.92 543.887 569.92 522.78 556.903 509.763L510.333 463.19C524.903 440.067 533.333 412.683 533.333 383.333C533.333 300.491 466.177 233.333 383.333 233.333Z" fill="black"/>
</svg>
